/* XPM */
static char *sidu_installer[] = {
/* columns rows colors chars-per-pixel */
"32 32 119 2 ",
"   c #162D50",
".  c #192F52",
"X  c #1B3254",
"o  c #1C365C",
"O  c #1E385F",
"+  c #223757",
"@  c #223758",
"#  c #273C5B",
"$  c #1F3960",
"%  c #223C65",
"&  c #243F69",
"*  c #2D4160",
"=  c #25416C",
"-  c #344765",
";  c #364865",
":  c #394B66",
">  c #3E4F6A",
",  c #274470",
"<  c #2A4773",
"1  c #2B4976",
"2  c #2D4C7A",
"3  c #334C73",
"4  c #304E7B",
"5  c #3D547A",
"6  c #42536E",
"7  c #4C5C75",
"8  c #455B7C",
"9  c #485B78",
"0  c #59677C",
"q  c #5C687B",
"w  c #717171",
"e  c #7B7B7B",
"r  c #335384",
"t  c #355789",
"y  c #37588B",
"u  c #395B8E",
"i  c #3B5E92",
"p  c #3D6196",
"a  c #3F649A",
"s  c #46638E",
"d  c #4F6689",
"f  c #5E6D84",
"g  c #52698B",
"h  c #586C8A",
"j  c #466595",
"k  c #41659D",
"l  c #4E6D9F",
"z  c #597299",
"x  c #647185",
"c  c #6B7686",
"v  c #65748D",
"b  c #69768A",
"n  c #737880",
"m  c #787C82",
"M  c #727C8C",
"N  c #677790",
"B  c #707E92",
"V  c #4267A0",
"C  c #456BA5",
"Z  c #476DA8",
"A  c #486FAB",
"S  c #4A71AD",
"D  c #4D75B2",
"F  c #527CBC",
"G  c #7C838E",
"H  c #758296",
"J  c #7C8594",
"K  c #75859C",
"L  c #7C8798",
"P  c #7C899F",
"I  c #6F83A2",
"U  c #7B8AA0",
"Y  c #5782C4",
"T  c #5985C8",
"R  c #5B88CD",
"E  c #858585",
"W  c #858789",
"Q  c #8C8C8C",
"!  c #838A95",
"~  c #898E96",
"^  c #838C9B",
"/  c #89919C",
"(  c #939393",
")  c #9C9C9C",
"_  c #8793A4",
"`  c #8A94A3",
"'  c #939AA5",
"]  c #999EA4",
"[  c #969EA9",
"{  c #9CA2AC",
"}  c #A5A5A5",
"|  c #A7A9AB",
" . c #ACACAC",
".. c #A5ABB3",
"X. c #A4AEBC",
"o. c #AEB2B7",
"O. c #AEB2B8",
"+. c #B3B3B3",
"@. c #B2B6BC",
"#. c #B6B8BD",
"$. c #BBBBBC",
"%. c #B6BBC2",
"&. c #B9BCC2",
"*. c #BEC1C4",
"=. c gray77",
"-. c #C5C6C8",
";. c #C4C8CD",
":. c #CBCBCC",
">. c #CBCED3",
",. c #CED0D3",
"<. c #D4D4D4",
"1. c #DCDCDC",
"2. c #DBDEE2",
"3. c #DFE1E3",
"4. c #E4E4E4",
"5. c #ECECEC",
"6. c gray95",
"7. c #F8F8F8",
"8. c None",
/* pixels */
"8.8.8.8.8.8.8.8.8.8.8.8.E E E E Q Q Q Q 8.8.8.8.8.8.8.8.8.8.8.8.",
"8.8.8.8.8.8.8.8.8.E E E E W Q Q ( ( ) ) ) ( ( 8.8.8.8.8.8.8.8.8.",
"8.8.8.8.8.8.8.8.E E E Q ( ( ( M b ! ) } } ) } ) ) 8.8.8.8.8.8.8.",
"8.8.8.8.8.8.E W Q Q ( ( ( ) 9 i S k M  . . .}  . . .8.8.8.8.8.8.",
"8.8.8.8.8.Q ( ( ( ) ) ) ] W , k Y Z 4 o.+.+.+.+.+.+.=.8.8.8.8.8.",
"8.8.8.8. . .( ) ) ) } } } G o r j t & o.$.$.$.$.=.=.:.:.8.8.8.8.",
"8.8.8.+.+.+.+.} } }  . .+.| # X $ o 9 =.-.-.-.:.:.<.<.<.<.8.8.8.",
"8.8. .+.$.$.+.+.+. .+.+.+.+...q > B =.=.K z K &.<.1.1.1.4.<.8.8.",
"8.8.$.$.$.$.$.$.$.b i j K =.=.-.:.<.:.5 i D S u ;.4.4.4.5.5.8.8.",
"8.} $.$.$.$.=.$./ 4 S Y u { :.:.<.1.[ = p F D y K 5.5.6.6.5.1.8.",
"8. .+.$.$.=.=.-.M = i a 2 ^ :.:.:.:.` o r i i 1 B 6.6.4.1.:.=.8.",
"8.$.$.=.=.=.:.:.O.X $ % @ &.8.8.8.8...X o & $ X @.1.,.=.$.+.} W ",
"+.=.=.:.:.<.<.<.<.O.x x ..8.8._ U 8.8.G ;   * ' %.g u s h W E e ",
"$.:.:.<.` j l X.5.4.4.1.8.8.3 p Z u ^ 8.+.:.<.#.3 y D F k 8 W E ",
":.<.<.*.1 S F t 3.6.5.<.8.7 2 Z R k 4 8.8.+.$.M & u D F k 1 m Q ",
",.1.1.&.O t y = 2.7.6.<.8.; = y k t & 8.8.| $.x o r i k t & m Q ",
"1.4.4.5.f     H 7.5.4.-.8.J   % = @ : 8.( +.$.] . @ = , % @ Q ( ",
"1.5.5.6.6.>.,.4.1.<.@.[ 8.8.q X . ; 8.8.x N L o.M X     @ G ) ( ",
"4.6.6.4.1.<.<.:.$.x i Z s 8.8.8.8.8.8.3 i Z k d } ) G !  . . .) ",
"8.1.<.<.=.=.+. .~ , C Y p f } 8.8.( q 1 k T D t J +.o. .+.+.+.8.",
"8.$.=.$.+. . . .~ o r u 2 x =.+. .+.0 & y V p 2 c $.$.$.$.$. .8.",
"8.8.+.+.+.+.+.$.*.6   o @ O.:.$.+.+.!   & < , o ] =.-.=.=.:.+.8.",
"8.8.} +.$.$.$.=.=.=.` ! #.:.:.' ^ [ $.x .   . M :.:.:.:.:.=.8.8.",
"8.8.8.$.$.=.:.-.<.<.<.,.<.,.v u D a K =.@.] #.=.:.:.<.<.<.+.8.8.",
"8.8.8.) =.=.:.<.<.<.<.<.:.O.& p Y S 2 $.:.-.:.-.:.:.<.1.$.8.8.8.",
"8.8.8.8.} :.<.1.1.1.1.1.<...o r p y = #.:.:.:.:.:.,.<.=.8.8.8.8.",
"8.8.8.8.8.+.1.1.1.1.1.1.<.<.- X % o 6 <.<.<.<.<.<.<.$.8.8.8.8.8.",
"8.8.8.8.8.8.$.1.4.4.4.1.1.<.=.v 6 M :.<.<.<.1.<.<.+.8.8.8.8.8.8.",
"8.8.8.8.8.8.8.8.:.1.4.1.1.1.1.1.1.1.1.1.1.1.<.=.8.8.8.8.8.8.8.8.",
"8.8.8.8.8.8.8.8.8.8.=.=.<.1.1.1.1.2.4.<.:.=.8.8.8.8.8.8.8.8.8.8.",
"8.8.8.8.8.8.8.8.8.8.8.8.8.w ( ) ) ( e 8.8.8.8.8.8.8.8.8.8.8.8.8.",
"8.8.8.8.8.8.8.8.8.8.8.8.8.8.8.8.8.8.8.8.8.8.8.8.8.8.8.8.8.8.8.8."
};
