/* XPM */
static char *sidu_installer_16[] = {
/* columns rows colors chars-per-pixel */
"16 16 158 2 ",
"   c #1A3152",
".  c #1D3354",
"X  c #1D375E",
"o  c #2B3F5D",
"O  c #344662",
"+  c #3A4C68",
"@  c #3B4D6A",
"#  c #294673",
"$  c #294773",
"%  c #2C4A78",
"&  c #2C4B78",
"*  c #2E4D7C",
"=  c #2F4F7E",
"-  c #42526C",
";  c #4B5B73",
":  c #505F75",
">  c #53637A",
",  c #54647C",
"<  c #315181",
"1  c #335384",
"2  c #345587",
"3  c #36578A",
"4  c #3E6096",
"5  c #4D6385",
"6  c #576986",
"7  c #586881",
"8  c #5A6980",
"9  c #5F6D83",
"0  c #5F6E84",
"q  c #566C8B",
"w  c #5C708F",
"e  c #4D6792",
"r  c #47699C",
"t  c #5C7497",
"y  c #616E82",
"u  c #677385",
"i  c #6A7585",
"p  c #687589",
"a  c #6B798F",
"s  c #717C8F",
"d  c #717D8F",
"f  c #6E7C91",
"g  c #466BA2",
"h  c #486DA6",
"j  c #486FAA",
"k  c #486FAB",
"l  c #4970AC",
"z  c #4A72AE",
"x  c #4B73B0",
"c  c #4F77B4",
"v  c #517AB9",
"b  c #667DA1",
"n  c #7B828C",
"m  c #798494",
"M  c #78869B",
"N  c #7F8B9F",
"B  c #838383",
"V  c #808286",
"C  c #848484",
"Z  c #868686",
"A  c gray53",
"S  c #888888",
"D  c #898989",
"F  c #8D8D8D",
"G  c gray56",
"H  c #808791",
"J  c #818A97",
"K  c #8F9398",
"L  c #929293",
"P  c #939393",
"I  c #959595",
"U  c #93989F",
"Y  c #96999D",
"T  c #9A9A9A",
"R  c #9F9F9F",
"E  c #8B96A6",
"W  c #969AA0",
"Q  c #949BA4",
"!  c #979DA4",
"~  c #9B9EA1",
"^  c #939CA8",
"/  c #929CAB",
"(  c #929CAC",
")  c #959FAD",
"_  c #9EA2A7",
"`  c #9EA2A9",
"'  c #9CA2AE",
"]  c #A0A0A0",
"[  c gray63",
"{  c gray64",
"}  c #A5A5A5",
"|  c gray66",
" . c #A9A9A9",
".. c #ACACAC",
"X. c gray68",
"o. c #AEAEAE",
"O. c #AFAFAF",
"+. c #A6ABB3",
"@. c #AEAFB0",
"#. c #A1AAB8",
"$. c #ABB0B6",
"%. c #AAB0B8",
"&. c #ADB2B9",
"*. c gray69",
"=. c #B1B1B1",
"-. c #B1B2B2",
";. c #B2B2B2",
":. c gray70",
">. c #B6B6B6",
",. c gray72",
"<. c #B9B9B9",
"1. c #BBBBBB",
"2. c #BCBCBC",
"3. c gray74",
"4. c gray75",
"5. c #BCBEC2",
"6. c #BDC0C4",
"7. c #C0C0C0",
"8. c #C1C1C1",
"9. c gray76",
"0. c gray77",
"q. c #C5C5C5",
"w. c gray78",
"e. c #C2C6CB",
"r. c #C2C6CE",
"t. c #C7C8CE",
"y. c #C8C8C8",
"u. c gray79",
"i. c #C9C9CB",
"p. c #CACACA",
"a. c #CBCBCB",
"s. c #C9CBCE",
"d. c #CCCCCD",
"f. c #CECECE",
"g. c gray81",
"h. c gray82",
"j. c #D2D2D2",
"k. c LightGray",
"l. c #D3D4D6",
"z. c gray83",
"x. c #D4D4D5",
"c. c #D5D5D5",
"v. c gray84",
"b. c #D7D7D7",
"n. c gray85",
"m. c gray86",
"M. c gainsboro",
"N. c #DFDFDF",
"B. c gray88",
"V. c gray89",
"C. c #E6E6E6",
"Z. c gray91",
"A. c #E9E9E9",
"S. c #EAEAEA",
"D. c #EAEBEC",
"F. c #ECECEC",
"G. c #EEEEEE",
"H. c None",
/* pixels */
"H.H.H.H.H.A Z D F P P H.H.H.H.H.",
"H.H.H.B A F P y t Y } [ } H.H.H.",
"H.H.[ I T _ K * j p 1.,.1.w.H.H.",
"H...>.*. .*.*.: + +./ %.k.n.c.H.",
"H.1.3.3.d c N a.c.d z g e.S.G.H.",
"..1.9.w.> < 7 M.b., % # r.M.w. .",
"9.a.) #.l.' t.5 e ! d ^ q h 6 B ",
"k.s.2 4 D.S.m 3 k ; X.Y % z < n ",
"V.G.E ( C.5.H..   n H ` o X O L ",
"Z.M.k.9.i v w | [ ; x r ~ W .. .",
"H.*...*.u # > 9.*.- 1 & ` 9.9.H.",
"H.*.3.w.f.$.s.M b ! y J a.f.a.H.",
"H.H.w.k.n.c.6.* k a a.a.f.c.H.H.",
"H.H.H.n.B.M.c.0 + &.c.c.f.H.H.H.",
"H.H.H.H.g.c.n.M.M.M.k.w.H.H.H.H.",
"H.H.H.H.H.H.H.H.H.H.H.H.H.H.H.H."
};
